<svg id="Layer_1" data-name="Layer 1" xmlns="http://www.w3.org/2000/svg" viewBox="0 0 96 96"><defs><style>.cls-1{fill:#33719a;}.cls-2{fill:#499fd8;}.cls-3{fill:#fff;}.cls-4{opacity:0.1;}.cls-5{fill:#ceeafa;}</style></defs><path class="cls-1" d="M87,24,66,3H9V93.079A2.921,2.921,0,0,0,11.921,96H84.079A2.921,2.921,0,0,0,87,93.079Z"/><path class="cls-2" d="M87,21,75,13,66,0H12.022A3.022,3.022,0,0,0,9,3.022V89.978A3.022,3.022,0,0,0,12.022,93H83.978A3.022,3.022,0,0,0,87,89.978Z"/><rect class="cls-3" x="15" y="30" width="66" height="3"/><rect class="cls-3" x="15" y="39" width="66" height="3"/><rect class="cls-3" x="15" y="48" width="66" height="3"/><rect class="cls-3" x="15" y="57" width="57" height="3"/><polygon class="cls-4" points="87 39 69 24 66 0 87 21 87 39"/><path class="cls-1" d="M87,24H69a3,3,0,0,1-3-3h0V18l21,3Z"/><path class="cls-5" d="M87,21,66,0V18.065A2.935,2.935,0,0,0,68.935,21Z"/></svg>